HIERARCHY
ROOT Hips
{
  OFFSET -187.679 86.5976 -156.378
  CHANNELS 6 Xposition Yposition Zposition Zrotation Xrotation Yrotation
  JOINT LeftUpLeg
  {
    OFFSET 8.64259 1.95398 -2.38835
    CHANNELS 3 Zrotation Xrotation Yrotation
    JOINT LeftLeg
    {
      OFFSET 43.7702 0 0
      CHANNELS 3 Zrotation Xrotation Yrotation
      JOINT LeftFoot
      {
        OFFSET 40.6238 0 0
        CHANNELS 3 Zrotation Xrotation Yrotation
        JOINT LeftToeBase
        {
          OFFSET 12.7242 0 0
          CHANNELS 3 Zrotation Xrotation Yrotation
          End Site
          {
            OFFSET 0 0 0
          }
        }
      }
    }
  }
  JOINT RightUpLeg
  {
    OFFSET -8.2249 1.95398 -2.59336
    CHANNELS 3 Zrotation Xrotation Yrotation
    JOINT RightLeg
    {
      OFFSET 43.5653 0 0
      CHANNELS 3 Zrotation Xrotation Yrotation
      JOINT RightFoot
      {
        OFFSET 40.6238 0 0
        CHANNELS 3 Zrotation Xrotation Yrotation
        JOINT RightToeBase
        {
          OFFSET 12.7242 0 0
          CHANNELS 3 Zrotation Xrotation Yrotation
          End Site
          {
            OFFSET 0 0 0
          }
        }
      }
    }
  }
  JOINT Spine
  {
    OFFSET 0.165834 0.87714 6.61349
    CHANNELS 3 Zrotation Xrotation Yrotation
    JOINT Spine1
    {
      OFFSET 7.38963 1.71661e-005 0
      CHANNELS 3 Zrotation Xrotation Yrotation
      JOINT Spine2
      {
        OFFSET 11.9445 1.14441e-005 0
        CHANNELS 3 Zrotation Xrotation Yrotation
        JOINT Spine3
        {
          OFFSET 14.7254 4.19617e-005 0
          CHANNELS 3 Zrotation Xrotation Yrotation
          JOINT Spine4
          {
            OFFSET 10.9679 0 0
            CHANNELS 3 Zrotation Xrotation Yrotation
            JOINT RightShoulder
            {
              OFFSET 2.46616 -1.6653 3.69651
              CHANNELS 3 Zrotation Xrotation Yrotation
              JOINT RightArm
              {
                OFFSET 13.0012 0 0
                CHANNELS 3 Zrotation Xrotation Yrotation
                JOINT RightForeArm
                {
                  OFFSET 28.7848 1.52588e-005 0
                  CHANNELS 3 Zrotation Xrotation Yrotation
                  JOINT RightHand
                  {
                    OFFSET 26.5688 1.52588e-005 0
                    CHANNELS 3 Zrotation Xrotation Yrotation
                    End Site
                    {
                      OFFSET 0 0 0
                    }
                  }
                }
              }
            }
            JOINT LeftShoulder
            {
              OFFSET 2.38034 -1.29275 -3.7523
              CHANNELS 3 Zrotation Xrotation Yrotation
              JOINT LeftArm
              {
                OFFSET 16.3182 6.10352e-005 0
                CHANNELS 3 Zrotation Xrotation Yrotation
                JOINT LeftForeArm
                {
                  OFFSET 27.0901 0 0
                  CHANNELS 3 Zrotation Xrotation Yrotation
                  JOINT LeftHand
                  {
                    OFFSET 24.5451 1.52588e-005 0
                    CHANNELS 3 Zrotation Xrotation Yrotation
                    End Site
                    {
                      OFFSET 0 0 0
                    }
                  }
                }
              }
            }
            JOINT Neck
            {
              OFFSET 5.0226 -0.0266342 0
              CHANNELS 3 Zrotation Xrotation Yrotation
              JOINT Head
              {
                OFFSET 6.69363 2.86102e-005 0
                CHANNELS 3 Zrotation Xrotation Yrotation
                End Site
                {
                  OFFSET 0 0 0
                }
              }
            }
          }
        }
      }
    }
  }
}
MOTION
Frames:	14
Frame Time:	0.0416667
261.393 95.5612 238.919 -90.8847 45.0564 -88.1328 -177.582 33.1094 84.2705 -30.8901 20.6358 1.58422 64.3604 2.12421 -0.171323 19.5365 -1.49469 -5.16566 163.611 -29.5681 83.3939 -76.0462 -0.214288 0.251869 58.5678 -0.77803 -1.41605 114.173 12.3444 -0.804055 2.82215 7.42067 -89.3527 12.0294 5.91632 0.645652 0.371885 5.93896 0.383716 -22.2575 5.44794 2.39898 -2.24488 5.44796 2.39899 91.4336 -34.0749 -102.426 23.0518 -0.998013 -7.54731 -82.205 10.5297 -100.539 10.7312 -0.701123 -11.6875 -82.7685 -37.0156 88.4092 17.6961 -5.8795 20.6321 43.6514 -32.5529 -137.866 33.4843 -16.4664 -52.159 17.4516 -12.2244 -11.9034 2.01215 -8.17222 5.56985 
245.347 93.4941 222.585 -93.0878 39.1938 -91.8548 -172.759 28.2048 77.2111 -53.2016 24.8359 -1.10016 75.0212 9.04539 6.23453 3.63774 -9.09831 -2.30594 155.08 -9.51401 73.8668 -111.236 7.81576 -2.88282 60.1157 -2.42033 -3.71855 60.1527 4.89923 5.32093 1.18758 7.86947 -88.5736 11.098 3.02599 2.54524 -0.571781 3.13506 2.4096 -23.1007 2.12162 3.33648 -3.08803 2.12164 3.33648 91.6474 -44.222 -99.319 31.4123 -12.8768 5.34941 -47.2027 3.88243 -90.4128 -18.9062 -3.11929 18.0937 -92.4842 -49.0006 74.9558 0.04811 -3.90482 6.88357 34.7623 -11.0687 -119.069 25.3018 -14.3141 -57.3804 16.8641 -10.1427 -17.6665 4.39247 -4.34185 7.13347 
230.876 92.0892 208.998 -92.6592 33.6675 -96.1256 -175.445 12.8048 72.6707 -56.9326 23.904 2.34815 86.3257 14.9589 4.7027 8.92124 -5.5748 -4.6319 163.126 22.177 78.9706 -132.772 1.7348 -5.66023 58.9664 -1.07619 -5.97322 14.4101 -3.16258 1.93002 -1.10457 7.733 -87.9207 11.4006 -1.22792 4.26439 -0.277127 -1.03926 4.31415 -22.7711 -2.45175 3.69962 -2.75844 -2.45174 3.69961 93.4842 -44.2103 -96.347 44.2902 -20.1132 25.1055 -64.1813 -10.0342 -73.5909 -30.7568 -2.13321 2.56778 -93.1898 -47.331 73.4748 -6.19532 -11.0932 -27.3563 24.0264 0.0806119 -89.6179 21.1284 -6.7783 -42.6856 19.1443 -4.32738 -16.9118 -0.656846 1.04528 3.84214 
215.114 92.7138 191.653 -91.659 37.0807 -90.1693 -171.403 -5.97844 90.9809 -42.6823 27.4587 4.57889 86.4723 13.7387 1.55375 19.4068 -0.599172 -7.76091 173.597 40.6344 91.403 -122.63 9.73285 -4.86422 72.5769 -4.38843 -4.74575 15.9943 -3.41829 3.35227 -2.46596 7.53408 -89.0234 11.8703 -4.44289 2.43577 0.204517 -4.33141 2.62915 -22.3895 -4.96917 0.985186 -2.37683 -4.96919 0.98519 96.6861 -37.4729 -91.8943 51.0115 -30.6954 42.9597 -71.4828 -14.9231 -74.2743 -41.1858 -0.819384 -2.79426 -89.2495 -33.9302 76.1688 -5.81875 -17.7304 -44.8592 142.368 17.7864 -123.515 9.42054 -13.3557 -79.2827 21.3312 5.69289 -11.781 -3.11523 9.28162 1.57529 
197.641 95.9689 174.189 -92.425 37.7589 -82.739 -164.921 -30.8947 98.6951 -14.4283 37.359 10.8925 56.6638 -1.39933 0.643819 27.6712 0.606915 -3.14366 176.278 46.3612 98.5014 -89.8035 20.3904 -2.16887 74.4233 -4.16895 -1.4469 17.9924 -3.28353 4.00821 -3.94945 7.71204 -90.2794 11.4835 -7.98837 0.257295 -0.162823 -7.96925 0.610898 -22.8865 -7.69407 -2.17011 -2.87383 -7.69407 -2.17011 99.1997 -25.8338 -88.5223 49.1336 -31.396 49.8232 -59.0083 -5.66575 -72.4527 -43.1708 4.89757 -17.5093 -83.8692 -16.0646 82.0757 7.65686 -4.52157 -37.7303 131.559 25.4846 -123.821 -10.428 5.86423 -77.0525 26.8801 14.5803 -9.51479 -10.407 17.2107 3.58779 
180.293 97.3801 157.043 -89.18 38.5115 -81.8087 -161.966 -36.053 103.714 -16.0949 25.2116 9.296 55.7226 -0.297277 1.39218 17.448 -6.0594 3.53293 -179.436 42.0408 97.1615 -46.7791 4.45765 -0.557507 68.7866 -3.73676 -1.52463 20.4901 -2.59419 3.51398 -4.23082 7.74497 -91.1116 11.3517 -8.93656 -1.31854 -0.288537 -8.98587 -0.920772 -23.0324 -8.12463 -3.96001 -3.01975 -8.12462 -3.96001 100.026 -20.6401 -87.258 41.111 -23.2597 51.8441 -32.9707 0.669485 -62.2294 8.08514 -1.00432 -7.16571 -81.9347 0.33262 82.4496 18.848 18.9924 -33.0785 87.6669 23.6219 -89.446 -30.6347 12.3873 -50.8922 29.3254 16.4924 -12.4156 -11.5626 19.9054 8.15635 
163.221 96.1291 140.144 -94.1266 39.726 -82.2892 -162.152 -36.3441 101.055 -42.2019 15.0084 6.39536 56.9203 0.382025 3.05791 23.4975 -2.46949 1.22724 -179.239 29.1234 94.2595 -20.7675 -4.72792 -0.410139 62.9102 -2.22466 -1.27597 22.7975 -1.40709 1.39576 -4.04821 7.70543 -90.6792 11.4733 -8.37165 -0.501652 -0.170374 -8.38553 -0.130072 -22.9027 -7.8315 -3.00995 -2.89005 -7.83149 -3.00995 99.4173 -23.7216 -88.2486 38.9908 -13.5134 52.7622 -58.3844 -6.6553 -74.3255 -15.6611 -0.956098 3.44978 -81.3614 -2.80524 83.4198 20.345 25.0464 -35.3957 92.5258 9.74598 -83.6654 -46.0335 13.6 -37.6032 23.253 18.2273 -4.46631 -6.81623 18.9607 1.72315 
147.999 92.89 123.878 -99.3143 43.1178 -79.8092 -160.28 -22.6359 100.623 -82.9001 22.7797 6.34427 58.5444 0.558706 4.11712 19.4931 -2.25979 -3.37384 178.108 30.5737 95.9791 -45.5486 -5.75312 -0.0727081 64.1292 -1.71149 -2.24327 17.5492 -2.69443 2.22758 -3.09644 7.66725 -90.6155 11.5301 -6.44761 -0.552757 -0.125054 -6.46563 -0.267261 -22.773 -5.98258 -2.47179 -2.76034 -5.98259 -2.47179 95.37 -37.856 -94.2041 24.3298 1.54582 45.2085 -52.6655 -2.82334 -82.6933 -12.1398 -0.958481 4.3688 -85.9989 -25.1396 80.1727 11.7017 13.7308 -17.2934 104.583 -12.1214 -91.9678 -57.8748 15.1073 -36.1364 13.7374 18.1406 6.40297 2.62365 15.9252 -2.17001 
135.03 91.1686 109.42 -102.975 47.803 -66.8814 -161.38 4.38811 108.603 -116.861 27.0234 8.73886 59.4208 0.315977 6.80737 14.6735 -2.63117 -6.42844 177.095 21.8241 106.983 -57.5753 -8.11075 2.27199 75.8543 -6.17925 -4.49216 23.6486 -2.01059 3.6025 -1.55492 8.39911 -91.9423 10.0029 -3.9818 -3.52751 -1.66623 -4.13308 -3.3489 -24.1896 -2.73875 -4.55995 -4.17693 -2.73874 -4.55994 91.0492 -48.762 -99.2835 18.5297 4.41323 9.60689 -47.1438 -0.86123 -82.159 -12.0489 -1.32209 7.98467 -89.743 -44.7394 78.1629 0.360643 -4.40673 2.80655 63.7704 -38.7509 -109.888 -5.41957 -0.368185 6.36402 20.6229 17.1766 9.94199 1.30234 13.3431 -3.63784 
120.925 92.2848 96.2258 -101.682 48.525 -70.7678 -172.331 30.5471 99.0522 -124.303 25.5829 9.09902 63.6041 2.89817 9.50179 10.5302 -4.18919 -6.22764 177.73 5.06109 102.612 -54.4716 -8.64308 0.587787 83.2779 -8.71203 -1.0136 27.8319 -1.05976 3.15583 -0.397397 8.05676 -91.444 10.7457 -1.458 -2.74962 -0.927759 -1.57754 -2.68288 -23.4374 -0.564897 -3.06034 -3.42479 -0.564892 -3.06034 88.758 -49.0302 -102.75 19.9081 9.08362 -23.9163 -49.793 -2.31396 -83.7989 -12.3622 -1.35588 7.72604 -86.861 -43.9903 82.6002 -24.9452 8.13067 25.763 55.6845 -39.389 -109.286 21.9804 4.32039 16.5837 16.8869 10.1404 6.19001 2.23327 7.97305 -1.3837 
104.727 96.0075 81.296 -105.476 53.3039 -72.0602 -173.791 40.5523 94.1942 -103.195 11.1002 6.49936 71.3938 7.26667 9.26568 11.3178 -3.62306 -6.82775 174.504 -14.4479 93.9971 -38.0318 -21.228 -3.04447 70.9407 -4.59761 -1.80676 31.7405 -1.57271 7.50365 2.33313 7.78772 -90.3671 11.3324 4.4723 -1.16473 -0.332131 4.41668 -1.36071 -22.9253 4.6155 0.235708 -2.9126 4.6155 0.235697 93.9731 -37.2283 -96.782 34.6105 24.9582 -34.3954 -40.8304 3.67796 -102.173 -18.5617 -2.8931 13.0775 -84.0939 -37.7537 86.2208 -38.7145 26.781 44.9338 77.8847 -46.3714 -89.8346 18.7166 2.73964 12.0296 17.9317 -3.44214 -3.70709 -0.820893 -2.16434 1.58399 
86.7717 99.3866 64.8872 -106.247 56.5193 -77.379 -175.313 37.6689 90.0491 -67.623 6.99711 3.10137 70.6034 5.70645 2.76586 15.7929 -4.04609 -2.35915 162.749 -27.9522 73.0893 -25.6389 -19.9903 -4.92337 63.185 -1.8455 -2.04376 22.0804 -2.30429 3.81502 4.28151 7.84945 -89.0927 11.183 8.94408 0.931529 -0.456928 8.97627 0.533792 -23.2104 8.24818 3.59425 -3.19773 8.24817 3.59425 96.6521 -16.5126 -96.7554 33.1006 40.338 -27.0531 -34.2823 4.98297 -119.424 -19.2074 -2.96937 12.9339 -82.0181 -25.0247 88.1171 -65.323 35.7469 68.3842 104.577 -46.3858 -59.4077 -6.63011 0.165175 2.34449 21.3789 -13.6221 -8.29882 -5.17343 -10.5036 0.97367 
69.1505 100.279 48.9912 -107.705 59.1944 -75.2655 -177.682 25.0585 93.4265 -22.8871 10.6236 2.83649 64.0969 4.28844 -0.287399 19.5251 -3.99725 0.81065 152.034 -33.0911 60.6117 -24.9402 6.35728 -2.77126 70.613 -4.49716 -1.496 21.4587 -2.1913 2.92271 4.86532 7.60304 -89.0746 11.6711 10.1115 0.789576 0.0399276 10.1363 0.339097 -22.7793 9.40251 3.8186 -2.76665 9.40255 3.8186 98.4577 -7.67937 -94.0594 16.533 33.8018 -26.8068 -32.0872 8.33056 -120.486 -13.9806 -2.03005 12.0743 -80.0184 -14.6293 91.3179 -48.3842 25.6513 62.0452 76.7 -50.353 -89.179 17.8313 1.23777 3.23667 13.999 -13.7926 -8.48505 -0.272898 -11.1983 1.19975 
52.2361 98.7776 33.6375 -112.821 56.9941 -65.2624 -176.699 17.5933 98.4603 -10.8544 25.2566 4.42949 59.1187 2.59738 0.832325 13.7269 -7.77201 3.1651 154.241 -33.6409 62.8855 -48.1418 20.8078 -5.26905 75.2664 -5.94715 -3.21833 17.8527 -2.47132 1.8955 4.25494 7.17711 -89.9565 12.589 8.4728 -0.912944 0.945075 8.42436 -1.2876 -21.8075 8.35279 1.69409 -1.79488 8.35277 1.69407 98.453 -9.63188 -93.5398 10.2115 18.2339 -11.5713 -28.1604 15.6555 -129.25 -13.6205 -1.72859 9.96051 -79.033 -15.2927 93.7528 -95.164 17.8267 82.934 124.503 -16.1713 -43.3391 -81.4072 42.624 -40.7742 7.19794 -10.0107 -9.9403 0.285913 -7.79533 0.372082 
